<svg xmlns="http://www.w3.org/2000/svg" width="207.5" height="209.5"><path stroke="#2D2829" stroke-width="5" stroke-dasharray="0, 15" stroke-linecap="round" fill="none" d="M102.105 203.59c-55.01 0-99.605-45.016-99.605-100.545C2.5 47.515 47.095 2.5 102.105 2.5c55.01 0 99.605 45.016 99.605 100.545 0 55.53-44.595 100.545-99.605 100.545zm-.308-170.027c-38.65 0-69.984 31.242-69.984 69.78 0 38.54 31.333 69.782 69.984 69.782 38.65 0 69.984-31.242 69.984-69.78 0-38.54-31.332-69.782-69.983-69.782zm.156 116.937c-26.277 0-47.578-21.336-47.578-47.656s21.3-47.657 47.578-47.657c26.277 0 47.578 21.337 47.578 47.657 0 26.32-21.3 47.656-47.577 47.656z"/></svg>