<svg xmlns="http://www.w3.org/2000/svg" width="611.981" height="611.981"><path d="M605.95 114.16c-4.909-3.356-11.387-3.245-16.144.319-3.287 2.455-8.183 4.632-13.896 6.532 18.82-23.342 19.098-38.944 18.82-42.786a13.893 13.893 0 0 0-7.947-11.539c-4.549-2.136-9.875-1.664-13.952 1.276-25.658 18.363-51.329 22.357-66.308 22.884-24.382-22.648-55.906-35.061-89.414-35.061-72.494 0-131.479 58.957-131.479 131.451 0 5.243.305 10.485.929 15.672C165.581 199.899 67.457 85.867 66.472 84.703a13.773 13.773 0 0 0-11.789-4.854 13.908 13.908 0 0 0-10.763 6.824c-30.789 52.633-18.224 102.506 2.885 137.387-3.925-2.108-8.668-2.247-12.746-.208a13.873 13.873 0 0 0-7.697 12.191c-.901 55.296 24.354 88.443 49.832 107.748a13.765 13.765 0 0 0-4.979 3.482 13.875 13.875 0 0 0-3.01 13.453c17.711 57.127 59.318 78.539 88.513 86.557-33.48 23.605-74.893 29.139-106.362 29.139-20.096 0-33.938-2.385-34.077-2.414-6.269-1.109-12.565 2.262-15.131 8.143a13.856 13.856 0 0 0 4.383 16.6c63.146 47.475 139.397 57.447 192.253 57.447 41.773 0 70.801-6.104 72.271-6.422 271.306-63.354 281.611-306.618 281.181-350.943 50.857-46.725 58.957-64.963 60.233-69.512a13.857 13.857 0 0 0-5.519-15.161zm-78.054 68.444a13.877 13.877 0 0 0-4.521 11.234c.181 2.635 15.006 264.801-259.365 328.877-.264.055-27.6 5.756-66.239 5.756-36.004 0-83.658-4.924-129.135-24.881 41.635-2.664 92.687-15.438 129.412-56.059 3.675-4.078 4.577-9.918 2.344-14.938-2.233-5.008-7.239-8.238-12.718-8.238-2.58 0-57.168-.652-84.49-51.398 12.648.402 24.118-1.471 32.62-5.34 5.45-2.482 8.668-8.17 8.03-14.119-.638-5.949-5.048-10.818-10.901-12.08-2.954-.637-65.795-14.951-77.126-81.231 9.847 3.759 21.83 6.366 33.425 4.66a13.89 13.89 0 0 0 11.303-9.902 13.889 13.889 0 0 0-4.341-14.382c-2.773-2.358-62.702-54.436-36.669-122.588C94.433 153.41 189.422 236.819 303.967 230.37a13.874 13.874 0 0 0 10.401-5.658 13.914 13.914 0 0 0 2.247-11.636 104.148 104.148 0 0 1-3.231-25.824c0-57.182 46.53-103.713 103.74-103.713 28.029 0 54.283 10.998 73.95 30.983a13.894 13.894 0 0 0 9.652 4.133l2.136.014c10.194 0 26.171-1.234 44.492-7.143-5.866 6.199-13.494 13.189-23.383 20.831a13.872 13.872 0 0 0-4.452 15.963c2.205 5.728 7.975 9.334 14.021 8.834 2.247-.18 12.121-1.04 24.34-3.231-7.697 7.878-17.502 17.35-29.984 28.681z"/></svg>