<svg xmlns="http://www.w3.org/2000/svg" viewBox="0 0 512.112 512.112"><path d="M406.21 400.367a69.312 69.312 0 0 1-36.736-11.936 172.36 172.36 0 0 1-30.656-28.032 98.12 98.12 0 0 0-22.176-20.096 83.206 83.206 0 0 0-4.032 25.6 33.44 33.44 0 0 1-8.608 23.328 39.71 39.71 0 0 1-22.784 9.984h-29.952a186.753 186.753 0 0 1-130.592-55.136A726.362 726.362 0 0 1 2.786 162.639a27.392 27.392 0 0 1 2.944-28.8 36.833 36.833 0 0 1 25.6-9.6l68.896-.416a45.886 45.886 0 0 1 20.224 6.976 35.455 35.455 0 0 1 11.584 14.336 406.512 406.512 0 0 0 24.704 48 207.96 207.96 0 0 0 31.36 42.816 284.835 284.835 0 0 0 .736-47.488 50.465 50.465 0 0 0-3.84-21.696 18.785 18.785 0 0 0-10.688-4.032l-12-1.504-2.976-12.8c-1.984-13.056 11.424-24.256 20.96-28.8a172.818 172.818 0 0 1 66.72-7.264 146.442 146.442 0 0 1 37.024 3.52c31.264 7.072 30.112 33.728 28.8 61.952-.352 8.32-.768 17.92-.768 29.056v8.544c-.292 5.909-.207 11.83.256 17.728a220.77 220.77 0 0 0 29.792-39.872 361.958 361.958 0 0 0 25.312-50.048 35.2 35.2 0 0 1 13.408-15.232 32.645 32.645 0 0 1 19.2-3.456l70.048-.544c6.4-.704 32.832-2.208 40.224 16.992 5.376 14.08.608 33.856-40.064 84.544-6.176 7.744-11.712 14.4-16.512 20.192a145.213 145.213 0 0 0-20.384 27.68 200.132 200.132 0 0 0 20.16 18.624 251.514 251.514 0 0 1 51.712 55.84 31.488 31.488 0 0 1 4 32.768 41.857 41.857 0 0 1-34.112 18.528l-64.832.896a15.192 15.192 0 0 1-4.064.288zm-88.896-92c16.672 0 30.976 15.328 44.8 30.272a151.77 151.77 0 0 0 24.544 22.944 34.247 34.247 0 0 0 20.832 6.752l66.336-1.056a22.403 22.403 0 0 0 4.896-1.056l-.512-.832a223.088 223.088 0 0 0-44.8-48c-43.488-37.76-40.48-48.416-4.576-91.84 4.704-5.728 10.112-12.256 16.192-19.84a222.327 222.327 0 0 0 33.312-49.728 46.808 46.808 0 0 0-6.72 0l-73.792.512c-1.44 0-13.12 28.8-28.8 53.92-23.488 37.28-48.544 69.792-72 55.744-18.272-11.04-17.6-34.464-17.088-51.584v-7.616c0-11.648.448-21.728.8-30.432a96.728 96.728 0 0 0-.832-28.32 13.412 13.412 0 0 0-3.2-1.056 116.582 116.582 0 0 0-30.016-2.784 368.28 368.28 0 0 0-37.792.96c.443.479.859.981 1.248 1.504a72.93 72.93 0 0 1 10.688 40.672c3.2 44.288-3.2 71.52-18.752 79.52-26.048 13.376-48.448-18.08-72.64-57.312a434.652 434.652 0 0 1-27.008-52.096 10.049 10.049 0 0 0-4.896-2.144l-62.304.608a673.692 673.692 0 0 0 107.744 165.056 154.976 154.976 0 0 0 107.008 46.176h29.568c-.384 0 1.6-.64 2.272-1.056-1.344-7.84-.544-48.352 27.52-56.672a27.043 27.043 0 0 1 7.968-1.216z"/></svg>