<svg
 xmlns="http://www.w3.org/2000/svg" width="60" height="40"><path fill-rule="evenodd"  fill="rgb(255, 254, 254)" d="M56.344,30.039 C53.870,33.959 50.206,37.039 45.354,39.279 L44.094,36.759 C46.800,35.639 49.156,33.913 51.164,31.579 C53.170,29.247 54.360,26.867 54.734,24.439 C55.014,23.319 55.154,22.247 55.154,21.219 C55.154,20.287 55.014,19.399 54.734,18.559 C52.680,20.799 49.974,21.919 46.614,21.919 C43.346,21.919 40.686,20.963 38.634,19.049 C36.580,17.137 35.554,14.499 35.554,11.139 C35.554,7.967 36.626,5.377 38.774,3.369 C40.920,1.363 43.674,0.359 47.034,0.359 C51.606,0.359 54.920,1.993 56.974,5.259 C57.906,6.659 58.654,8.387 59.214,10.439 C59.774,12.493 60.054,14.639 60.054,16.879 C60.054,21.733 58.816,26.119 56.344,30.039 ZM9.935,39.279 L8.675,36.759 C11.381,35.639 13.737,33.913 15.745,31.579 C17.751,29.247 18.941,26.867 19.315,24.439 C19.595,23.319 19.735,22.247 19.735,21.219 C19.735,20.287 19.595,19.399 19.315,18.559 C17.261,20.799 14.555,21.919 11.195,21.919 C7.927,21.919 5.267,20.963 3.215,19.049 C1.161,17.137 0.135,14.499 0.135,11.139 C0.135,7.967 1.207,5.377 3.355,3.369 C5.501,1.363 8.255,0.359 11.615,0.359 C16.187,0.359 19.501,1.993 21.555,5.259 C22.487,6.659 23.235,8.387 23.795,10.439 C24.355,12.493 24.635,14.639 24.635,16.879 C24.635,21.733 23.397,26.119 20.925,30.039 C18.451,33.959 14.787,37.039 9.935,39.279 Z"/>
</svg>
